<svg xmlns="http://www.w3.org/2000/svg" xmlns:xlink="http://www.w3.org/1999/xlink" width="500" zoomAndPan="magnify" viewBox="0 0 375 374.999991" height="500" preserveAspectRatio="xMidYMid meet" version="1.0"><defs><g/></defs><rect x="-37.5" width="450" fill="#ffffff" y="-37.499999" height="449.999989" fill-opacity="1"/><rect x="-37.5" width="450" fill="#ffffff" y="-37.499999" height="449.999989" fill-opacity="1"/><rect x="-37.5" width="450" fill="#000000" y="-37.499999" height="449.999989" fill-opacity="1"/><g fill="#ffffff" fill-opacity="1"><g transform="translate(194.154572, 84.255669)"><g><path d="M -37.644531 212.089844 L -2.917969 212.089844 C -1.324219 212.089844 0 210.761719 0 209.703125 L 0 126.457031 L -40.5625 126.457031 L -40.5625 173.382812 C -86.691406 175.769531 -120.890625 156.414062 -120.890625 106.042969 C -120.890625 40.5625 -66.277344 37.910156 -40.5625 38.972656 L -40.5625 85.628906 L 0 85.628906 L 0 2.386719 C 0 1.324219 -1.324219 0 -2.917969 0 L -37.644531 0 C -90.402344 0 -161.71875 15.375 -161.71875 106.042969 C -161.71875 200.15625 -89.34375 212.089844 -37.644531 212.089844 Z M -37.644531 212.089844 "/></g></g></g><path stroke-linecap="butt" transform="matrix(-0.75, -0.000000000000000092, 0.000000000000000092, -0.75, 242.763944, 401.505648)" fill="none" stroke-linejoin="miter" d="M 115.039433 140.200248 L 68.69568 140.200248 C 66.539429 140.200248 64.810263 142.012748 64.810263 143.392957 L 64.810263 254.372131 L 118.919641 254.372131 L 118.919641 191.804418 C 180.367562 188.61171 226.018607 214.413795 226.018607 281.642966 C 226.018607 368.892972 153.18006 372.42943 118.919641 371.049222 L 118.919641 308.825259 L 64.810263 308.825259 L 64.810263 419.804433 C 64.810263 421.273183 66.539429 423.00235 68.69568 423.00235 L 115.039433 423.00235 C 185.372771 423.00235 280.471735 402.460682 280.471735 281.642966 C 280.471735 156.163791 183.90402 140.200248 115.039433 140.200248 Z M 115.039433 140.200248 " stroke="#ffffff" stroke-width="7.290525" stroke-opacity="1" stroke-miterlimit="4"/><g fill="#ffffff" fill-opacity="1"><g transform="translate(213.537207, 295.40918)"><g><path d="M 100.742188 -39.5 L 40.5625 -39.5 L 40.5625 -87.222656 L 123.804688 -87.222656 C 125.398438 -87.222656 126.722656 -88.546875 126.722656 -89.605469 L 126.722656 -123.277344 C 126.722656 -124.601562 125.398438 -125.664062 123.804688 -125.664062 L 40.5625 -125.664062 L 40.5625 -173.648438 L 100.742188 -173.648438 L 100.742188 -212.089844 L 2.917969 -212.089844 C 1.324219 -212.089844 0 -210.761719 0 -209.703125 L 0 -2.386719 C 0 -1.324219 1.324219 0 2.917969 0 L 100.742188 0 Z M 100.742188 -39.5 "/></g></g></g><path stroke-linecap="butt" transform="matrix(0.75, 0, 0, 0.75, 146.494243, -21.840799)" fill="none" stroke-linejoin="miter" d="M 223.669149 370.355464 L 143.502477 370.355464 L 143.502477 306.66796 L 254.481651 306.66796 C 256.54936 306.66796 258.36186 304.944002 258.36186 303.563793 L 258.36186 258.600249 C 258.36186 256.87629 256.54936 255.40754 254.481651 255.40754 L 143.502477 255.40754 L 143.502477 191.459619 L 223.669149 191.459619 L 223.669149 140.199199 L 93.273307 140.199199 C 91.117057 140.199199 89.393099 142.011699 89.393099 143.391908 L 89.393099 419.808593 C 89.393099 421.272134 91.117057 423.001301 93.273307 423.001301 L 223.669149 423.001301 Z M 223.669149 370.355464 " stroke="#ffffff" stroke-width="7.290525" stroke-opacity="1" stroke-miterlimit="4"/></svg>